<svg xmlns="http://www.w3.org/2000/svg" xmlns:xlink="http://www.w3.org/1999/xlink" width="500" zoomAndPan="magnify" viewBox="0 0 375 374.999991" height="500" preserveAspectRatio="xMidYMid meet" version="1.0"><defs><g><g id="id1"/></g><clipPath id="id2"><path d="M 39 121 L 230 121 L 230 250 L 39 250 Z M 39 121 " clip-rule="nonzero"/></clipPath><clipPath id="id3"><path d="M 190.777344 372.46875 L -0.140625 181.550781 L 183.355469 -1.945312 L 374.273438 188.976562 Z M 190.777344 372.46875 " clip-rule="nonzero"/></clipPath><clipPath id="id4"><path d="M 190.777344 372.46875 L -0.140625 181.550781 L 183.355469 -1.945312 L 374.273438 188.976562 Z M 190.777344 372.46875 " clip-rule="nonzero"/></clipPath><clipPath id="id5"><path d="M 144 121 L 335 121 L 335 250 L 144 250 Z M 144 121 " clip-rule="nonzero"/></clipPath><clipPath id="id6"><path d="M 190.777344 372.46875 L -0.140625 181.550781 L 183.355469 -1.945312 L 374.273438 188.976562 Z M 190.777344 372.46875 " clip-rule="nonzero"/></clipPath><clipPath id="id7"><path d="M 190.777344 372.46875 L -0.140625 181.550781 L 183.355469 -1.945312 L 374.273438 188.976562 Z M 190.777344 372.46875 " clip-rule="nonzero"/></clipPath></defs><g fill="rgb(79.219055%, 85.099792%, 83.918762%)" fill-opacity="1"><g transform="translate(56.60473, 290.526014)"><g><path d="M 177.890625 0 L 87.0625 -104.96875 L 87.0625 0 L 23.25 0 L 23.25 -216.21875 L 83.90625 -216.21875 L 174.734375 -109.6875 L 174.734375 -216.21875 L 238.546875 -216.21875 L 238.546875 0 Z M 177.890625 0 "/></g></g></g><g clip-path="url(#id2)"><g clip-path="url(#id3)"><g clip-path="url(#id4)"><path fill="rgb(100%, 100%, 100%)" d="M 215.875 135.179688 C 224.808594 144.113281 229.734375 155.945312 229.742188 168.492188 L 229.765625 201.996094 C 229.769531 208.3125 228.535156 214.445312 226.09375 220.230469 C 224.96875 222.898438 221.890625 224.144531 219.222656 223.015625 C 216.554688 221.886719 215.300781 218.808594 216.425781 216.140625 C 218.320312 211.652344 219.277344 206.890625 219.273438 201.988281 L 219.25 168.484375 C 219.242188 158.738281 215.414062 149.542969 208.460938 142.59375 C 201.511719 135.644531 192.316406 131.8125 182.570312 131.804688 L 86.742188 131.734375 C 66.535156 131.71875 50.109375 148.148438 50.125 168.359375 L 50.148438 201.867188 C 50.15625 211.609375 53.988281 220.804688 60.9375 227.757812 C 67.890625 234.707031 77.078125 238.539062 86.820312 238.542969 L 144.347656 238.585938 C 147.246094 238.589844 149.597656 240.941406 149.597656 243.835938 C 149.597656 246.734375 147.253906 249.082031 144.355469 249.078125 L 86.828125 249.035156 C 74.285156 249.027344 62.457031 244.101562 53.527344 235.171875 C 53.523438 235.167969 53.523438 235.167969 53.523438 235.167969 C 44.589844 226.234375 39.667969 214.40625 39.65625 201.859375 L 39.632812 168.351562 C 39.613281 142.359375 60.746094 121.222656 86.734375 121.242188 L 182.5625 121.3125 C 195.113281 121.320312 206.941406 126.246094 215.875 135.179688 Z M 215.875 135.179688 " fill-opacity="1" fill-rule="nonzero"/></g></g></g><g clip-path="url(#id5)"><g clip-path="url(#id6)"><g clip-path="url(#id7)"><path fill="rgb(100%, 100%, 100%)" d="M 320.601562 135.253906 C 320.605469 135.253906 320.605469 135.257812 320.605469 135.257812 C 329.539062 144.191406 334.460938 156.019531 334.472656 168.570312 L 334.496094 202.074219 C 334.515625 228.070312 313.386719 249.203125 287.394531 249.183594 L 191.566406 249.113281 C 165.574219 249.09375 144.410156 227.929688 144.390625 201.933594 L 144.363281 168.429688 C 144.359375 162.175781 145.574219 156.097656 147.972656 150.367188 C 149.089844 147.699219 152.164062 146.441406 154.835938 147.5625 C 157.507812 148.6875 158.769531 151.761719 157.652344 154.429688 C 155.792969 158.871094 154.851562 163.582031 154.855469 168.4375 L 154.878906 201.945312 C 154.894531 222.152344 171.347656 238.605469 191.558594 238.625 L 287.386719 238.691406 C 307.59375 238.707031 324.019531 222.277344 324.003906 202.066406 L 323.980469 168.5625 C 323.972656 158.816406 320.140625 149.621094 313.191406 142.671875 C 313.191406 142.667969 313.191406 142.667969 313.191406 142.667969 C 306.242188 135.71875 297.050781 131.890625 287.308594 131.882812 L 229.78125 131.839844 C 226.886719 131.835938 224.535156 129.488281 224.53125 126.589844 C 224.53125 123.691406 226.878906 121.347656 229.773438 121.347656 L 287.300781 121.390625 C 299.84375 121.398438 311.671875 126.324219 320.601562 135.253906 Z M 320.601562 135.253906 " fill-opacity="1" fill-rule="nonzero"/></g></g></g></svg>